<svg xmlns="http://www.w3.org/2000/svg" width="42.156" height="42.157" viewBox="0 0 42.156 42.157"><defs><style>.a{fill:#fff;stroke:#fff;stroke-width:0.5px;}</style></defs><path class="a" d="M39.672,1.984a6.8,6.8,0,0,0-9.6,0L2.885,29.173c-.013.013-.02.029-.032.042s-.029.038-.044.057a.733.733,0,0,0-.094.18c-.007.02-.017.037-.022.057s-.007.015-.009.023L.02,40.728A.747.747,0,0,0,0,40.881c0,.01,0,.019,0,.029a.75.75,0,0,0,.049.25c.007.019.014.035.023.054a.752.752,0,0,0,.148.223.759.759,0,0,0,.247.164.748.748,0,0,0,.286.057.758.758,0,0,0,.174-.02l11.2-2.665a.544.544,0,0,0,.058-.023.7.7,0,0,0,.075-.029.743.743,0,0,0,.152-.093c.018-.014.037-.025.054-.041s.014-.009.02-.015l27.19-27.19A6.794,6.794,0,0,0,39.672,1.984ZM38.606,3.05a5.283,5.283,0,0,1,.49,6.889L31.717,2.56A5.283,5.283,0,0,1,38.606,3.05Zm-3.732,11.2L27.41,6.782l1.066-1.066L35.94,13.18ZM3.74,37.915a.753.753,0,0,0-1.066,0l-.571.571L4.029,30.4l3.334-.37-.429,3.862a.753.753,0,0,0,.008.083.77.77,0,0,0-.008.083c0,.025.016.045.021.069a.766.766,0,0,0,.038.124.734.734,0,0,0,.072.136.714.714,0,0,0,.075.1.755.755,0,0,0,.118.1.766.766,0,0,0,.1.063.785.785,0,0,0,.156.05.789.789,0,0,0,.081.026.739.739,0,0,0,.082,0h0a.749.749,0,0,0,.082,0l3.862-.429-.37,3.334L3.17,39.552l.571-.571A.754.754,0,0,0,3.74,37.915ZM13.2,33.784,30.075,16.911a.754.754,0,1,0-1.066-1.066L12.137,32.718l-3.6.4.4-3.6L25.811,12.647a.754.754,0,1,0-1.066-1.066L7.871,28.453l-2.4.267L26.343,7.848l7.464,7.464L12.936,36.184Zm23.8-21.67L29.542,4.65l1.067-1.067,7.464,7.464Z" transform="translate(0.25 0.25)"/></svg>