<svg xmlns="http://www.w3.org/2000/svg" width="15.632" height="11.896" viewBox="0 0 15.632 11.896"><defs><style>.a{fill:#fff;}</style></defs><g transform="translate(0 -57.75)"><g transform="translate(0 57.75)"><path class="a" d="M13.724,57.75H1.912A1.913,1.913,0,0,0,0,59.662v8.073a1.913,1.913,0,0,0,1.912,1.912H13.721a1.913,1.913,0,0,0,1.912-1.912v-8.07A1.911,1.911,0,0,0,13.724,57.75Zm1.038,9.985a1.039,1.039,0,0,1-1.038,1.038H1.912A1.039,1.039,0,0,1,.873,67.735v-8.07a1.039,1.039,0,0,1,1.038-1.038H13.721a1.039,1.039,0,0,1,1.038,1.038v8.07Z" transform="translate(0 -57.75)"/><path class="a" d="M63.808,113.1l3.823-3.429a.437.437,0,1,0-.585-.65l-5.272,4.732-1.029-.919s-.006-.006-.006-.01a.646.646,0,0,0-.071-.061l-4.185-3.745a.438.438,0,1,0-.582.653l3.868,3.458-3.852,3.606a.438.438,0,0,0-.019.618.447.447,0,0,0,.32.139.438.438,0,0,0,.3-.116l3.91-3.658,1.061.948a.435.435,0,0,0,.582,0l1.09-.977,3.888,3.694a.438.438,0,0,0,.618-.016.438.438,0,0,0-.016-.618Z" transform="translate(-53.949 -107.248)"/></g></g></svg>