<svg xmlns="http://www.w3.org/2000/svg" width="48.081" height="48.08" viewBox="0 0 48.081 48.08"><defs><style>.a{fill:#fff;}</style></defs><path class="a" d="M40.863,136.665a42.6,42.6,0,0,0,6.875-6.094,1.409,1.409,0,0,0,0-1.841,42.6,42.6,0,0,0-6.875-6.094,36.631,36.631,0,0,0-7.484-4.2A24.813,24.813,0,0,0,24.04,116.5a24.813,24.813,0,0,0-9.339,1.938,36.643,36.643,0,0,0-7.484,4.2A42.606,42.606,0,0,0,.343,128.73a1.409,1.409,0,0,0,0,1.841,42.607,42.607,0,0,0,6.874,6.094,36.626,36.626,0,0,0,7.484,4.2A24.813,24.813,0,0,0,24.04,142.8a24.813,24.813,0,0,0,9.339-1.938A36.613,36.613,0,0,0,40.863,136.665Zm-17.122,3.311a10.33,10.33,0,0,1,.3-20.655c.1,0,.2,0,.3,0a10.329,10.329,0,0,1-.3,20.655C23.941,139.98,23.841,139.977,23.742,139.976Zm21-10.325a42.864,42.864,0,0,1-5.575,4.764,35.819,35.819,0,0,1-4.263,2.63,13.115,13.115,0,0,0,0-14.783,36.1,36.1,0,0,1,4.26,2.626,42.83,42.83,0,0,1,5.575,4.764Zm-41.4,0a42.78,42.78,0,0,1,5.575-4.764,35.832,35.832,0,0,1,4.261-2.629,13.121,13.121,0,0,0,0,14.781,36.079,36.079,0,0,1-4.257-2.624,42.82,42.82,0,0,1-5.575-4.764Zm0,0" transform="translate(0 -105.61)"/><path class="a" d="M215.222,211.484a4.226,4.226,0,1,0,4.226,4.226A4.231,4.231,0,0,0,215.222,211.484Zm0,5.634a1.409,1.409,0,1,1,1.409-1.409A1.41,1.41,0,0,1,215.222,217.118Zm0,0" transform="translate(-191.182 -191.671)"/><path class="a" d="M1.413,16.574a1.409,1.409,0,0,0,1.409-1.409V3.317H14.67A1.409,1.409,0,0,0,14.67.5H1.413A1.409,1.409,0,0,0,0,1.909V15.166a1.409,1.409,0,0,0,1.409,1.409Zm0,0" transform="translate(-0.004 -0.5)"/><path class="a" d="M355.49.5H342.233a1.409,1.409,0,1,0,0,2.817h11.849V15.166a1.409,1.409,0,1,0,2.817,0V1.909A1.409,1.409,0,0,0,355.49.5Zm0,0" transform="translate(-308.818 -0.5)"/><path class="a" d="M14.67,354.577H2.821V342.729a1.409,1.409,0,0,0-2.817,0v13.257a1.409,1.409,0,0,0,1.409,1.409H14.67a1.409,1.409,0,0,0,0-2.817Zm0,0" transform="translate(-0.004 -309.314)"/><path class="a" d="M355.49,341.32a1.408,1.408,0,0,0-1.409,1.409v11.849H342.233a1.409,1.409,0,1,0,0,2.817H355.49a1.409,1.409,0,0,0,1.409-1.409V342.729A1.409,1.409,0,0,0,355.49,341.32Zm0,0" transform="translate(-308.818 -309.314)"/></svg>