<svg xmlns="http://www.w3.org/2000/svg" width="50.065" height="43.88" viewBox="0 0 50.065 43.88"><defs><style>.a{fill:#fff;}</style></defs><g transform="translate(0 0)"><g transform="translate(0 0)"><path class="a" d="M179.1,159.668a5.107,5.107,0,1,0,5.107,5.107A5.107,5.107,0,0,0,179.1,159.668Zm0,7.782a2.675,2.675,0,1,1,0-5.35h0a2.675,2.675,0,1,1,0,5.35Z" transform="translate(-153.742 -144.18)"/><path class="a" d="M45.72,30.39,12.526,26.621a4.559,4.559,0,0,0-3.587,1.034,4.62,4.62,0,0,0-1.763,3.161L6.568,35.8H4.683A4.886,4.886,0,0,0,0,40.847V65.713a4.621,4.621,0,0,0,4.5,4.741q.092,0,.184,0H38.06a4.99,4.99,0,0,0,5.107-4.742V64.74a6.079,6.079,0,0,0,2.31-.973,5.046,5.046,0,0,0,1.763-3.283l2.8-24.683A4.925,4.925,0,0,0,45.72,30.39ZM40.735,65.713a2.56,2.56,0,0,1-2.675,2.31H4.683A2.189,2.189,0,0,1,2.431,65.9q0-.093,0-.187v-4.5l9.423-6.931a2.918,2.918,0,0,1,3.769.182L22.253,60.3A5.715,5.715,0,0,0,25.84,61.64a5.532,5.532,0,0,0,2.918-.79l11.977-6.931V65.713Zm0-14.652L27.481,58.782a3.1,3.1,0,0,1-3.587-.3l-6.688-5.9a5.411,5.411,0,0,0-6.748-.243L2.433,58.174V40.847a2.454,2.454,0,0,1,2.25-2.614H38.06a2.8,2.8,0,0,1,2.675,2.614V51.061Zm6.872-15.588c0,.008,0,.016,0,.024L44.747,60.181a2.067,2.067,0,0,1-.79,1.641c-.243.243-.79.365-.79.486V40.847A5.228,5.228,0,0,0,38.06,35.8H9l.547-4.742a2.8,2.8,0,0,1,.912-1.581,2.8,2.8,0,0,1,1.824-.486l33.134,3.83A2.432,2.432,0,0,1,47.607,35.473Z" transform="translate(0 -26.576)"/></g></g></svg>