<svg xmlns="http://www.w3.org/2000/svg" width="15.837" height="14.747" viewBox="0 0 15.837 14.747"><defs><style>.a{fill:#fff;}</style></defs><g transform="translate(-39.665 -35.842)"><g transform="translate(39.665 35.842)"><g transform="translate(0 0)"><path class="a" d="M15.572,23.711l-2.4-2.4V18.538a.908.908,0,0,0-1.816,0V19.5L9.569,17.708a2.388,2.388,0,0,0-3.3,0l-6,6A.908.908,0,0,0,1.55,24.995l6-6a.536.536,0,0,1,.735,0l6,6a.908.908,0,1,0,1.284-1.284Z" transform="translate(-0.001 -17.047)"/><path class="a" d="M74.667,127.878a.446.446,0,0,0-.631,0l-5.279,5.277a.447.447,0,0,0-.131.316v3.849a1.636,1.636,0,0,0,1.636,1.636h2.614v-4.048h2.951v4.048H78.44a1.636,1.636,0,0,0,1.635-1.635v-3.849a.445.445,0,0,0-.131-.316Z" transform="translate(-66.433 -124.209)"/></g></g></g></svg>