<svg xmlns="http://www.w3.org/2000/svg" width="29.573" height="29.573" viewBox="0 0 29.573 29.573"><defs><style>.a{fill:#fff;}</style></defs><path class="a" d="M21.567,0H8A8.014,8.014,0,0,0,0,8.005V21.568a8.014,8.014,0,0,0,8.005,8H21.567a8.014,8.014,0,0,0,8-8V8.005A8.014,8.014,0,0,0,21.567,0ZM14.786,22.873a8.086,8.086,0,1,1,8.086-8.086A8.1,8.1,0,0,1,14.786,22.873Zm8.28-14.265a2.389,2.389,0,1,1,2.39-2.389A2.392,2.392,0,0,1,23.065,8.607Zm0,0" transform="translate(0.001 0)"/><path class="a" d="M152.372,146.02a6.352,6.352,0,1,0,6.352,6.352A6.36,6.36,0,0,0,152.372,146.02Zm0,0" transform="translate(-137.586 -137.586)"/><path class="a" d="M388.648,96.3a.656.656,0,1,0,.656.656A.657.657,0,0,0,388.648,96.3Zm0,0" transform="translate(-365.582 -90.738)"/></svg>