<svg xmlns="http://www.w3.org/2000/svg" width="16.779" height="14.747" viewBox="0 0 16.779 14.747"><defs><style>.a{fill:#fff;}</style></defs><path class="a" d="M211,240h2.949v.983H211Zm0,0" transform="translate(-204.085 -232.135)"/><path class="a" d="M13.613,83.722H10.848v.492a.491.491,0,0,1-.492.492H6.423a.491.491,0,0,1-.492-.492v-.492H3.167a1.473,1.473,0,0,1-1.4-1.008L0,77.41V88.146a1.476,1.476,0,0,0,1.475,1.475H15.3a1.476,1.476,0,0,0,1.475-1.475V77.411l-1.768,5.3A1.473,1.473,0,0,1,13.613,83.722Zm0,0" transform="translate(0 -74.873)"/><path class="a" d="M35.319,0H31.386a1.476,1.476,0,0,0-1.475,1.475v.492h-4.1l1.854,5.563a.491.491,0,0,0,.467.336h2.765V7.374a.491.491,0,0,1,.492-.492h3.933a.491.491,0,0,1,.492.492v.492h2.765a.491.491,0,0,0,.467-.336L40.9,1.966h-4.1V1.475A1.476,1.476,0,0,0,35.319,0ZM30.895,1.966V1.475a.492.492,0,0,1,.492-.492h3.933a.492.492,0,0,1,.492.492v.492Zm0,0" transform="translate(-24.963 0)"/></svg>