<svg xmlns="http://www.w3.org/2000/svg" width="47.175" height="49.633" viewBox="0 0 47.175 49.633"><defs><style>.a{fill:#fff;}</style></defs><g transform="translate(0)"><path class="a" d="M51.79,10.174H50.515V7.334A7.345,7.345,0,0,0,43.18,0h-15.4a7.345,7.345,0,0,0-7.334,7.334v2.839H19.284a7.345,7.345,0,0,0-7.334,7.334v11.83a7.345,7.345,0,0,0,7.334,7.334h1.152v9.3A3.67,3.67,0,0,0,24.1,49.633H46.842A3.67,3.67,0,0,0,50.5,45.971v-9.3H51.79a7.345,7.345,0,0,0,7.334-7.334V17.508A7.345,7.345,0,0,0,51.79,10.174ZM23.214,7.334a4.566,4.566,0,0,1,4.557-4.557H43.16a4.566,4.566,0,0,1,4.557,4.557v2.839h-24.5ZM47.727,45.992a.891.891,0,0,1-.885.885H24.1a.891.891,0,0,1-.885-.885V30.654H47.727Zm8.62-16.644a4.566,4.566,0,0,1-4.557,4.557H50.515V30.654h1.831a1.389,1.389,0,0,0,0-2.777H18.4a1.389,1.389,0,0,0,0,2.777h2.047v3.251H19.284a4.566,4.566,0,0,1-4.557-4.557V17.518a4.566,4.566,0,0,1,4.557-4.557H51.79a4.566,4.566,0,0,1,4.557,4.557Z" transform="translate(-11.95)"/><path class="a" d="M142.039,340.177h17.683a1.389,1.389,0,1,0,0-2.777H142.039a1.389,1.389,0,1,0,0,2.777Z" transform="translate(-127.411 -302.693)"/><path class="a" d="M160.732,392.6H143.039a1.389,1.389,0,0,0,0,2.777h17.683a1.389,1.389,0,0,0,.01-2.777Z" transform="translate(-128.308 -352.214)"/><path class="a" d="M362.257,151.9h-2.819a1.389,1.389,0,0,0,0,2.777h2.819a1.389,1.389,0,0,0,0-2.777Z" transform="translate(-322.448 -136.274)"/></g></svg>