<svg xmlns="http://www.w3.org/2000/svg" width="15.871" height="15.871" viewBox="0 0 15.871 15.871"><defs><style>.a{fill:#fff;}</style></defs><path class="a" d="M20.645,18a2.645,2.645,0,1,0,2.645,2.645A2.648,2.648,0,0,0,20.645,18Z" transform="translate(-12.71 -12.71)"/><path class="a" d="M15.053,6.172H14.46a6.713,6.713,0,0,0-.664-1.6l.419-.419a.818.818,0,0,0,0-1.156L12.877,1.655a.837.837,0,0,0-1.156,0l-.419.419A6.717,6.717,0,0,0,9.7,1.41V.817A.818.818,0,0,0,8.882,0H6.989a.818.818,0,0,0-.817.817V1.41a6.713,6.713,0,0,0-1.6.664l-.419-.419a.837.837,0,0,0-1.156,0L1.655,2.993a.818.818,0,0,0,0,1.156l.419.419a6.705,6.705,0,0,0-.664,1.6H.817A.818.818,0,0,0,0,6.989V8.881A.818.818,0,0,0,.817,9.7H1.41a6.713,6.713,0,0,0,.664,1.6l-.419.419a.818.818,0,0,0,0,1.156l1.338,1.338a.836.836,0,0,0,1.156,0l.419-.419a6.725,6.725,0,0,0,1.6.664v.593a.818.818,0,0,0,.817.817H8.881a.818.818,0,0,0,.817-.817V14.46a6.713,6.713,0,0,0,1.6-.664l.419.419a.837.837,0,0,0,1.156,0l1.338-1.338a.818.818,0,0,0,0-1.156L13.8,11.3a6.725,6.725,0,0,0,.664-1.6h.593a.818.818,0,0,0,.817-.817V6.989A.818.818,0,0,0,15.053,6.172ZM11.462,7.935A3.527,3.527,0,1,1,7.935,4.408,3.531,3.531,0,0,1,11.462,7.935Z"/></svg>