<svg xmlns="http://www.w3.org/2000/svg" width="13.878" height="13.878" viewBox="0 0 13.878 13.878"><defs><style>.a{fill:#fff;}</style></defs><g transform="translate(-0.006)"><g transform="translate(0.006)"><path class="a" d="M10.557,53.986a.972.972,0,0,0-1.47,0c-.344.341-.687.682-1.025,1.028a.2.2,0,0,1-.283.052c-.222-.121-.459-.219-.673-.352a10.662,10.662,0,0,1-2.57-2.339A6.089,6.089,0,0,1,3.614,50.9a.211.211,0,0,1,.052-.271c.344-.332.679-.673,1.017-1.014a.976.976,0,0,0,0-1.5c-.269-.271-.537-.537-.806-.809s-.552-.557-.832-.832a.979.979,0,0,0-1.47,0c-.347.341-.679.69-1.031,1.025a1.674,1.674,0,0,0-.526,1.129,4.784,4.784,0,0,0,.37,2.059,12.513,12.513,0,0,0,2.221,3.7,13.743,13.743,0,0,0,4.551,3.561,6.583,6.583,0,0,0,2.521.734,1.848,1.848,0,0,0,1.586-.6c.295-.329.627-.63.939-.944a.983.983,0,0,0,.006-1.5Q11.386,54.808,10.557,53.986Z" transform="translate(-0.006 -44.805)"/><path class="a" d="M240.985,100.107l1.066-.182A4.784,4.784,0,0,0,238,96l-.15,1.071a3.7,3.7,0,0,1,3.131,3.035Z" transform="translate(-230.985 -93.228)"/><path class="a" d="M247.409,2.247A7.858,7.858,0,0,0,242.9,0l-.15,1.071a6.857,6.857,0,0,1,5.8,5.623l1.066-.182A7.915,7.915,0,0,0,247.409,2.247Z" transform="translate(-235.743)"/></g></g></svg>